<svg xmlns="http://www.w3.org/2000/svg" viewBox="0 0 1200 630" width="1200" height="630">
  <defs>
    <linearGradient id="bg" x1="0" y1="0" x2="1" y2="1">
      <stop offset="0%" stop-color="#eef2ff" />
      <stop offset="100%" stop-color="#ffffff" />
    </linearGradient>
  </defs>
  <rect width="1200" height="630" fill="url(#bg)" />
  <g transform="translate(880 315)" stroke="#4f46e5" stroke-width="4" fill="none">
    <line x1="0" y1="0" x2="0" y2="-150" />
    <line x1="0" y1="0" x2="130" y2="-75" />
    <line x1="0" y1="0" x2="130" y2="75" />
    <line x1="0" y1="0" x2="0" y2="150" />
    <line x1="0" y1="0" x2="-130" y2="75" />
    <line x1="0" y1="0" x2="-130" y2="-75" />
    <circle cx="0" cy="-150" r="18" fill="#4f46e5" />
    <circle cx="130" cy="-75" r="18" fill="#4f46e5" />
    <circle cx="130" cy="75" r="18" fill="#4f46e5" />
    <circle cx="0" cy="150" r="18" fill="#4f46e5" />
    <circle cx="-130" cy="75" r="18" fill="#4f46e5" />
    <circle cx="-130" cy="-75" r="18" fill="#4f46e5" />
    <circle cx="0" cy="0" r="30" fill="#4f46e5" stroke="none" />
  </g>
  <g font-family="system-ui, -apple-system, 'Segoe UI', sans-serif" fill="#0f172a">
    <text x="90" y="260" font-size="36" font-weight="500" fill="#4f46e5">한동대학교 조성배 교수</text>
    <text x="90" y="340" font-size="64" font-weight="700">스타트업 교재</text>
    <text x="90" y="420" font-size="64" font-weight="700">통합 포털</text>
    <text x="90" y="490" font-size="30" font-weight="400" fill="#475569">6개 교재와 도구를 한 곳에서</text>
  </g>
</svg>
